<?xml version="1.0" encoding="UTF-8" standalone="no"?>
<!-- Created with Inkscape (http://www.inkscape.org/) -->

<svg
   xmlns:dc="http://purl.org/dc/elements/1.1/"
   xmlns:cc="http://creativecommons.org/ns#"
   xmlns:rdf="http://www.w3.org/1999/02/22-rdf-syntax-ns#"
   xmlns:svg="http://www.w3.org/2000/svg"
   xmlns="http://www.w3.org/2000/svg"
   xmlns:sodipodi="http://sodipodi.sourceforge.net/DTD/sodipodi-0.dtd"
   xmlns:inkscape="http://www.inkscape.org/namespaces/inkscape"
   inkscape:export-ydpi="90.000000"
   inkscape:export-xdpi="90.000000"
   width="34"
   height="20"
   id="svg11300"
   sodipodi:version="0.32"
   inkscape:version="0.91 r13725"
   sodipodi:docname="alt-off.svg"
   inkscape:output_extension="org.inkscape.output.svg.inkscape"
   version="1.0"
   style="display:inline;enable-background:new">
  <sodipodi:namedview
     stroke="#ef2929"
     fill="#f57900"
     id="base"
     pagecolor="#8c8c8c"
     bordercolor="#ff5e00"
     borderopacity="1"
     inkscape:pageopacity="1"
     inkscape:pageshadow="2"
     inkscape:zoom="17.875"
     inkscape:cx="16.232"
     inkscape:cy="5.629132"
     inkscape:current-layer="layer1"
     showgrid="true"
     inkscape:grid-bbox="true"
     inkscape:document-units="px"
     inkscape:showpageshadow="false"
     inkscape:window-width="1600"
     inkscape:window-height="851"
     inkscape:window-x="0"
     inkscape:window-y="24"
     width="400px"
     height="300px"
     inkscape:snap-nodes="false"
     inkscape:snap-bbox="true"
     gridtolerance="10000"
     inkscape:object-nodes="false"
     inkscape:snap-grids="true"
     showguides="true"
     inkscape:guide-bbox="true"
     inkscape:window-maximized="1"
     inkscape:bbox-nodes="true"
     inkscape:bbox-paths="false"
     inkscape:snap-bbox-edge-midpoints="false"
     inkscape:snap-bbox-midpoints="false"
     objecttolerance="10000"
     guidetolerance="10000"
     borderlayer="true"
     showborder="true"
     guidecolor="#ff0b00"
     guideopacity="1"
     guidehicolor="#001aff"
     guidehiopacity="0.49803922"
     inkscape:snap-intersection-paths="false"
     inkscape:snap-midpoints="false"
     inkscape:snap-smooth-nodes="false"
     inkscape:object-paths="false">
    <inkscape:grid
       type="xygrid"
       id="grid3123"
       empspacing="4"
       visible="true"
       enabled="true"
       snapvisiblegridlinesonly="true" />
  </sodipodi:namedview>
  <defs
     id="defs3">
    <linearGradient
       id="linearGradient4459">
      <stop
         style="stop-color:#ffffff;stop-opacity:1;"
         offset="0"
         id="stop4461" />
      <stop
         style="stop-color:#ffffff;stop-opacity:0;"
         offset="1"
         id="stop4463" />
    </linearGradient>
  </defs>
  <metadata
     id="metadata4">
    <rdf:RDF>
      <cc:Work
         rdf:about="">
        <dc:format>image/svg+xml</dc:format>
        <dc:type
           rdf:resource="http://purl.org/dc/dcmitype/StillImage" />
        <dc:creator>
          <cc:Agent>
            <dc:title />
          </cc:Agent>
        </dc:creator>
        <dc:source />
        <cc:license
           rdf:resource="" />
        <dc:title />
        <dc:subject>
          <rdf:Bag />
        </dc:subject>
        <dc:date />
        <dc:rights>
          <cc:Agent>
            <dc:title />
          </cc:Agent>
        </dc:rights>
        <dc:publisher>
          <cc:Agent>
            <dc:title />
          </cc:Agent>
        </dc:publisher>
        <dc:identifier />
        <dc:relation />
        <dc:language />
        <dc:coverage />
        <dc:description />
        <dc:contributor>
          <cc:Agent>
            <dc:title />
          </cc:Agent>
        </dc:contributor>
      </cc:Work>
      <cc:Work
         rdf:about="">
        <dc:format>image/svg+xml</dc:format>
        <dc:type
           rdf:resource="http://purl.org/dc/dcmitype/StillImage" />
      </cc:Work>
    </rdf:RDF>
  </metadata>
  <g
     style="display:inline"
     inkscape:groupmode="layer"
     inkscape:label="Base"
     id="layer1"
     transform="translate(0,-280)">
    <path
       style="opacity:0.15;fill:#000000;fill-opacity:1;stroke:none"
       d="M 10 1 C 5.014 1 1 5.014 1 10 C 1 14.986 5.014 19 10 19 L 24 19 C 28.986 19 33 14.986 33 10 C 33 5.014 28.986 1 24 1 L 10 1 z M 10 2 L 24 2 C 28.432 2 32 5.568 32 10 C 32 14.432 28.432 18 24 18 L 10 18 C 5.568 18 2 14.432 2 10 C 2 5.568 5.568 2 10 2 z "
       transform="translate(0,280)"
       id="rect2998" />
    <path
       id="rect4213-3"
       d="m 10,280 c -5.54,0 -10,4.46 -10,10 0,5.54 4.46,10 10,10 l 14,0 c 5.54,0 10,-4.46 10,-10 0,-5.54 -4.46,-10 -10,-10 l -14,0 z m 0,1 14,0 c 4.986,0 9,4.014 9,9 0,4.986 -4.014,9 -9,9 l -14,0 c -4.986,0 -9,-4.014 -9,-9 0,-4.986 4.014,-9 9,-9 z"
       style="opacity:0.01000001;fill:#000000;fill-opacity:1;stroke:none"
       inkscape:connector-curvature="0" />
    <rect
       rx="8"
       style="opacity:0.7;fill:#ffffff;fill-opacity:1;stroke:none"
       id="rect4712"
       width="30"
       height="16"
       x="2"
       y="282"
       ry="8" />
    <path
       inkscape:connector-curvature="0"
       id="path4731"
       d="m 17,290 c 0,3.866 -3.134007,7 -7,7 -3.8659933,0 -7,-3.134 -7,-7 0,-3.86599 3.1340067,-7 7,-7 3.865993,0 7,3.13401 7,7 z"
       style="fill:#000000;fill-opacity:1;stroke:none;opacity:0.15" />
    <path
       style="fill:#f5f5f5;fill-opacity:1;stroke:none"
       d="m 16,290 c 0,3.31371 -2.686292,6 -6,6 -3.3137085,0 -6,-2.68629 -6,-6 0,-3.31371 2.6862915,-6 6,-6 3.313708,0 6,2.68629 6,6 z"
       id="path4442-4-2"
       inkscape:connector-curvature="0" />
  </g>
</svg>
